Coordinates
version=1
nRows=21
nColumns=12
inDegrees=yes

Units are S.I. units (second, meters, Newtons, ...)
Angles are in degrees

endheader
time	SC_y	SC_z	SC_x	AC_y	AC_z	AC_x	GH_y	GH_z	GH_yy	EL_x	PS_y
       0.0              -14.24          26.16          2.759           35.4         -8.969          10.21          173.2        -0.7415          174.2           52.3          75.24
   0.03124              -14.24          26.16          2.766           35.4         -8.966          10.21          173.2        -0.7368          174.2          52.29          75.24
   0.06247              -14.25          26.16          2.772           35.4         -8.964          10.21          173.2        -0.7318          174.2          52.29          75.23
   0.09371              -14.25          26.16          2.779           35.4         -8.961           10.2          173.2        -0.7265          174.2          52.28          75.23
    0.1249              -14.25          26.16          2.786           35.4         -8.958           10.2          173.1        -0.7209          174.2          52.28          75.22
    0.1562              -14.26          26.16          2.794           35.4         -8.955           10.2          173.1        -0.7148          174.2          52.27          75.22
    0.1874              -14.26          26.16          2.802           35.4         -8.952           10.2          173.1        -0.7084          174.2          52.27          75.21
    0.2187              -14.27          26.16          2.811           35.4         -8.948          10.19          173.0        -0.7015          174.2          52.26          75.21
    0.2499              -14.27          26.16          2.821           35.4         -8.944          10.19          173.0        -0.6942          174.2          52.25           75.2
    0.2811              -14.28          26.16          2.831           35.4          -8.94          10.19          172.9        -0.6863          174.2          52.25          75.19
    0.3124              -14.29          26.16          2.842           35.4         -8.936          10.19          172.9        -0.6778          174.2          52.24          75.19
    0.3436              -14.29          26.16          2.854          35.39         -8.931          10.18          172.8        -0.6686          174.2          52.23          75.18
    0.3748               -14.3          26.15          2.867          35.39         -8.926          10.18          172.8        -0.6588          174.2          52.22          75.17
    0.4061              -14.31          26.15          2.881          35.39         -8.921          10.17          172.7        -0.6481          174.2          52.21          75.16
    0.4373              -14.32          26.15          2.896          35.39         -8.915          10.17          172.6        -0.6366          174.2           52.2          75.15
    0.4686              -14.33          26.15          2.912          35.39         -8.908          10.16          172.6        -0.6241          174.2          52.19          75.14
    0.4998              -14.34          26.15           2.93          35.39         -8.901          10.16          172.5        -0.6106          174.2          52.17          75.13
     0.531              -14.35          26.15          2.949          35.39         -8.894          10.15          172.4        -0.5958          174.2          52.16          75.12
    0.5623              -14.36          26.15           2.97          35.39         -8.886          10.15          172.3        -0.5796          174.2          52.14          75.11
    0.5935              -14.37          26.15          2.993          35.38         -8.877          10.14          172.2         -0.562          174.2          52.13          75.09
    0.6247              -14.39          26.15          3.018          35.38         -8.867          10.13          172.1        -0.5426          174.2          52.11          75.08
